<?xml version="1.0" encoding="utf-8"?>
<!-- Generator: Adobe Illustrator 22.0.1, SVG Export Plug-In . SVG Version: 6.00 Build 0)  -->
<svg version="1.1" id="ss_logo" xmlns="http://www.w3.org/2000/svg" xmlns:xlink="http://www.w3.org/1999/xlink" x="0px" y="0px"
	 viewBox="0 0 73.8 65.4" style="enable-background:new 0 0 73.8 65.4;" xml:space="preserve">
<style type="text/css">
	.st0{fill:none;stroke:#000000;stroke-width:3;stroke-miterlimit:10;}
</style>
<polyline class="st0" points="32.3,18.6 13.6,63.9 5.5,63.9 26.6,13 1.5,13 1.5,20.1 17.3,20.1 "/>
<path class="st0" d="M59.1,20.6c7.8,2.7,13.1,8.7,13.1,17.2c0,10.9-6.9,18.4-19,18.4c-12.1,0-19.4-7.4-19.4-18.4
	c0-3.4,1.1-6.6,3.1-9.7L54.2,1.5h12.5l-16.2,25c7.6,0,14.3,3.3,14.3,11.7c0,7-4.8,10.9-11.7,10.9c-6.9,0-11.6-4.4-11.6-10.9
	c0-1.7,0.3-3.2,0.9-4.6"/>
</svg>
